<?xml version="1.0" encoding="UTF-8" standalone="no"?>
<!DOCTYPE svg PUBLIC "-//W3C//DTD SVG 1.1//EN" "http://www.w3.org/Graphics/SVG/1.1/DTD/svg11.dtd">
<svg version="1.1" xmlns="http://www.w3.org/2000/svg" xmlns:xlink="http://www.w3.org/1999/xlink" preserveAspectRatio="xMidYMid meet" viewBox="0 0 25 25" width="25" height="25"><defs><path d="M13.87 0.81L14.25 0.84L14.62 0.89L14.98 0.95L15.34 1.02L15.69 1.1L16.04 1.2L16.39 1.31L16.72 1.43L17.05 1.56L17.37 1.7L17.69 1.85L18 2.01L18.3 2.19L18.59 2.37L18.87 2.56L19.15 2.76L19.41 2.97L19.67 3.19L19.91 3.42L20.15 3.66L20.38 3.9L20.59 4.15L20.8 4.41L20.99 4.68L21.18 4.96L21.35 5.24L21.51 5.52L21.65 5.82L21.79 6.11L21.91 6.42L22.02 6.73L22.11 7.04L22.19 7.36L22.26 7.69L22.31 8.02L22.35 8.35L22.38 8.69L22.38 9.03L22.38 9.37L22.35 9.7L22.31 10.04L22.26 10.37L22.19 10.7L22.11 11.03L22.02 11.36L21.91 11.69L21.79 12.02L21.65 12.35L21.51 12.68L21.35 13.01L21.18 13.34L20.99 13.67L20.8 14.01L20.59 14.34L20.38 14.68L20.15 15.03L19.91 15.38L19.67 15.73L19.41 16.08L19.15 16.45L18.87 16.81L18.59 17.18L18.3 17.56L18 17.95L17.69 18.34L17.37 18.74L17.05 19.14L16.72 19.56L16.39 19.98L16.04 20.41L15.69 20.85L15.34 21.3L14.98 21.76L14.62 22.23L14.25 22.71L13.87 23.2L13.5 23.71L13.11 24.22L12.73 23.71L12.35 23.2L11.98 22.71L11.61 22.23L11.25 21.76L10.89 21.3L10.53 20.85L10.18 20.41L9.84 19.98L9.51 19.56L9.18 19.14L8.85 18.74L8.54 18.34L8.23 17.95L7.93 17.56L7.64 17.18L7.36 16.81L7.08 16.45L6.81 16.08L6.56 15.73L6.31 15.38L6.07 15.03L5.85 14.68L5.63 14.34L5.43 14.01L5.23 13.67L5.05 13.34L4.88 13.01L4.72 12.68L4.57 12.35L4.44 12.02L4.32 11.69L4.21 11.36L4.11 11.03L4.03 10.7L3.96 10.37L3.91 10.04L3.87 9.7L3.85 9.37L3.84 9.03L3.85 8.69L3.87 8.35L3.91 8.02L3.96 7.69L4.03 7.36L4.11 7.04L4.21 6.73L4.32 6.42L4.44 6.11L4.57 5.82L4.72 5.52L4.88 5.24L5.05 4.96L5.23 4.68L5.43 4.41L5.63 4.15L5.85 3.9L6.07 3.66L6.31 3.42L6.56 3.19L6.81 2.97L7.08 2.76L7.36 2.56L7.64 2.37L7.93 2.19L8.23 2.01L8.54 1.85L8.85 1.7L9.18 1.56L9.51 1.43L9.84 1.31L10.18 1.2L10.53 1.1L10.89 1.02L11.25 0.95L11.61 0.89L11.98 0.84L12.35 0.81L12.73 0.78L13.11 0.78L13.5 0.78L13.87 0.81ZM12.75 4.7L12.58 4.71L12.4 4.74L12.23 4.76L12.06 4.8L11.89 4.84L11.73 4.88L11.56 4.94L11.4 4.99L11.25 5.05L11.1 5.12L10.95 5.19L10.8 5.27L10.66 5.35L10.52 5.44L10.39 5.53L10.26 5.63L10.13 5.73L10.01 5.83L9.89 5.94L9.78 6.05L9.67 6.17L9.57 6.28L9.47 6.41L9.38 6.53L9.29 6.66L9.21 6.8L9.14 6.93L9.07 7.07L9 7.21L8.95 7.36L8.89 7.5L8.85 7.65L8.81 7.81L8.78 7.96L8.75 8.11L8.74 8.27L8.73 8.43L8.72 8.59L8.73 8.75L8.74 8.91L8.75 9.07L8.78 9.23L8.81 9.38L8.85 9.53L8.89 9.68L8.95 9.83L9 9.97L9.07 10.11L9.14 10.25L9.21 10.39L9.29 10.52L9.38 10.65L9.47 10.78L9.57 10.9L9.67 11.02L9.78 11.14L9.89 11.25L10.01 11.36L10.13 11.46L10.26 11.56L10.39 11.65L10.52 11.75L10.66 11.83L10.8 11.91L10.95 11.99L11.1 12.06L11.25 12.13L11.4 12.19L11.56 12.25L11.73 12.3L11.89 12.35L12.06 12.39L12.23 12.42L12.4 12.45L12.58 12.47L12.75 12.49L12.93 12.5L13.11 12.5L13.29 12.5L13.47 12.49L13.65 12.47L13.83 12.45L14 12.42L14.17 12.39L14.34 12.35L14.5 12.3L14.66 12.25L14.82 12.19L14.98 12.13L15.13 12.06L15.28 11.99L15.43 11.91L15.57 11.83L15.71 11.75L15.84 11.65L15.97 11.56L16.1 11.46L16.22 11.36L16.33 11.25L16.45 11.14L16.55 11.02L16.66 10.9L16.75 10.78L16.85 10.65L16.93 10.52L17.01 10.39L17.09 10.25L17.16 10.11L17.22 9.97L17.28 9.83L17.33 9.68L17.38 9.53L17.41 9.38L17.45 9.23L17.47 9.07L17.49 8.91L17.5 8.75L17.5 8.59L17.5 8.43L17.49 8.27L17.47 8.11L17.45 7.96L17.41 7.81L17.38 7.65L17.33 7.5L17.28 7.36L17.22 7.21L17.16 7.07L17.09 6.93L17.01 6.8L16.93 6.66L16.85 6.53L16.75 6.41L16.66 6.28L16.55 6.17L16.45 6.05L16.33 5.94L16.22 5.83L16.1 5.73L15.97 5.63L15.84 5.53L15.71 5.44L15.57 5.35L15.43 5.27L15.28 5.19L15.13 5.12L14.98 5.05L14.82 4.99L14.66 4.94L14.5 4.88L14.34 4.84L14.17 4.8L14 4.76L13.83 4.74L13.65 4.71L13.47 4.7L13.29 4.69L13.11 4.69L12.93 4.69L12.75 4.7Z" id="d5UuGqv7SK"></path></defs><g><g><g><use xlink:href="#d5UuGqv7SK" opacity="1" fill="#419521" fill-opacity="1"></use></g></g></g></svg>