<?xml version="1.0" encoding="UTF-8" standalone="no"?>
<!DOCTYPE svg PUBLIC "-//W3C//DTD SVG 1.1//EN" "http://www.w3.org/Graphics/SVG/1.1/DTD/svg11.dtd">
<svg version="1.1" xmlns="http://www.w3.org/2000/svg" xmlns:xlink="http://www.w3.org/1999/xlink" preserveAspectRatio="xMidYMid meet" viewBox="0 0 25 25" width="25" height="25"><defs><path d="M20.88 7.43C22.6 7.43 24 8.82 24 10.55C24 12.35 24 14.66 24 16.47C24 18.19 22.6 19.58 20.88 19.58C16.91 19.58 8.09 19.58 4.12 19.58C2.4 19.58 1 18.19 1 16.47C1 14.66 1 12.35 1 10.55C1 8.82 2.4 7.43 4.12 7.43C8.09 7.43 16.91 7.43 20.88 7.43Z" id="e1dbuRt6Vl"></path><path d="M17.51 4.59C18.45 4.59 19.22 5.35 19.22 6.29C19.22 7.09 19.22 7.77 19.22 8.57C19.22 9.51 18.45 10.27 17.51 10.27C15.17 10.27 9.83 10.27 7.49 10.27C6.55 10.27 5.78 9.51 5.78 8.57C5.78 7.77 5.78 7.09 5.78 6.29C5.78 5.35 6.55 4.59 7.49 4.59C9.83 4.59 15.17 4.59 17.51 4.59Z" id="a2ey1hutd"></path></defs><g><g><g><g><use xlink:href="#e1dbuRt6Vl" opacity="1" fill-opacity="0" stroke="#732e9a" stroke-width="3" stroke-opacity="1"></use></g></g><g><g><use xlink:href="#a2ey1hutd" opacity="1" fill-opacity="0" stroke="#b730e5" stroke-width="3" stroke-opacity="1"></use></g></g></g></g></svg>