<?xml version="1.0" encoding="UTF-8" standalone="no"?>
<!DOCTYPE svg PUBLIC "-//W3C//DTD SVG 1.1//EN" "http://www.w3.org/Graphics/SVG/1.1/DTD/svg11.dtd">
<svg version="1.1" xmlns="http://www.w3.org/2000/svg" xmlns:xlink="http://www.w3.org/1999/xlink" preserveAspectRatio="xMidYMid meet" viewBox="0 0 25 25" width="25" height="25"><defs><path d="M13.18 15.75L12.98 13.54L12.98 11.15L12.98 8.94L12.98 6.73" id="c2LOXle5M5"></path><path d="M21.17 23.33L21.17 14.31L10.88 14.31L1 14.31" id="e4EuLQP7O"></path><path d="M4.52 5.88L7.34 5.88L9.96 5.88L13.18 6.05L16.4 6.05L19.02 6.05" id="e25M2Wjy0"></path><path d="M1 10.9L11.5 10.9L11.77 7.52L4.52 7.52L4.52 4.27L19.38 4.27L19.38 7.52L14.63 7.52L14.63 11.24L24.13 11.24L24.13 23.33L18 23.33L18 16.9L1 16.9L1 10.9Z" id="g1DvsJ7dUu"></path></defs><g><g><g><g><use xlink:href="#c2LOXle5M5" opacity="1" fill-opacity="0" stroke="#2d84a9" stroke-width="3" stroke-opacity="1"></use></g></g><g><g><use xlink:href="#e4EuLQP7O" opacity="1" fill-opacity="0" stroke="#2d84a9" stroke-width="6" stroke-opacity="1"></use></g></g><g><g><use xlink:href="#e25M2Wjy0" opacity="1" fill-opacity="0" stroke="#2d84a9" stroke-width="3" stroke-opacity="1"></use></g></g><g><g><use xlink:href="#g1DvsJ7dUu" opacity="1" fill-opacity="0" stroke="#063b52" stroke-width="2" stroke-opacity="1"></use></g></g></g></g></svg>